<svg width="46" height="47" viewBox="0 0 46 47" fill="none" xmlns="http://www.w3.org/2000/svg">
<rect y="0.5" width="46" height="46" rx="23" fill="white"/>
<g clip-path="url(#clip0_559_4063)">
<path d="M12 19.591L13.5588 13.6072C13.8175 12.9722 14.2322 12.5491 14.9452 12.5H31.0837C31.7829 12.5482 32.1972 12.9563 32.458 13.5766C32.8481 15.0885 33.2624 16.5965 33.6383 18.1122C33.8771 19.0761 34.2199 19.7442 33.8077 20.7236C33.1693 22.2415 31.3139 22.8683 29.8852 22.0318C29.0963 21.5695 28.6872 20.8579 28.5001 19.9775C28.0647 23.1588 23.5029 23.2062 23.0571 20.021C22.9463 20.0124 22.9851 20.0137 22.9726 20.0856C22.8993 20.507 22.8011 20.82 22.5588 21.1769C21.1185 23.3009 17.8379 22.4985 17.5288 19.9775C17.4926 19.9767 17.4076 20.4356 17.3796 20.5165C16.5308 22.9561 13.2101 23.0383 12.2074 20.6947L12 19.978V19.5914V19.591Z" fill="#004B82"/>
<path d="M15.0121 34.5001C14.2417 34.448 13.1191 33.4462 13.1191 32.6739V23.7159C14.5948 24.3436 16.2739 24.0371 17.5297 23.0823C19.0876 24.3552 21.4492 24.3664 22.9998 23.075C24.5901 24.3354 26.9176 24.3802 28.5001 23.0823C29.7576 24.0388 31.4324 24.3402 32.9106 23.7159V32.6739C32.9106 33.4867 31.7889 34.4075 31.0177 34.5001H15.0121ZM29.3395 29.7737C29.2804 30.2585 28.9459 30.6184 28.5165 30.8207C26.9663 31.5517 25.2424 30.2176 25.6243 28.5344C25.9907 26.9196 28.0164 26.4517 29.1028 27.6678L30.0271 26.7448C28.4665 25.1228 25.7416 25.4534 24.6315 27.4143C23.2365 29.8792 25.4187 32.602 28.1078 32.2607C29.9745 32.0235 31.0444 30.2744 30.6302 28.4849H27.3603V29.7737H29.3395Z" fill="#004B82"/>
</g>
<defs>
<clipPath id="clip0_559_4063">
<rect width="22" height="22" fill="white" transform="translate(12 12.5)"/>
</clipPath>
</defs>
</svg>
