<svg width="46" height="46" viewBox="0 0 46 46" fill="none" xmlns="http://www.w3.org/2000/svg">
<rect width="46" height="46" rx="23" fill="#004B82"/>
<g clip-path="url(#clip0_1212_6885)">
<path d="M12 19.091L13.5588 13.1072C13.8175 12.4722 14.2322 12.0491 14.9452 12H31.0837C31.7829 12.0482 32.1972 12.4563 32.458 13.0766C32.8481 14.5885 33.2624 16.0965 33.6383 17.6122C33.8771 18.5761 34.2199 19.2442 33.8077 20.2236C33.1693 21.7415 31.3139 22.3683 29.8852 21.5318C29.0963 21.0695 28.6872 20.3579 28.5001 19.4775C28.0647 22.6588 23.5029 22.7062 23.0571 19.521C22.9463 19.5124 22.9851 19.5137 22.9726 19.5856C22.8993 20.007 22.8011 20.32 22.5588 20.6769C21.1185 22.8009 17.8379 21.9985 17.5288 19.4775C17.4926 19.4767 17.4076 19.9356 17.3796 20.0165C16.5308 22.4561 13.2101 22.5383 12.2074 20.1947L12 19.478V19.0914V19.091Z" fill="white"/>
<path d="M15.0121 34.0001C14.2417 33.948 13.1191 32.9462 13.1191 32.1739V23.2159C14.5948 23.8436 16.2739 23.5371 17.5297 22.5823C19.0876 23.8552 21.4492 23.8664 22.9998 22.575C24.5901 23.8354 26.9176 23.8802 28.5001 22.5823C29.7576 23.5388 31.4324 23.8402 32.9106 23.2159V32.1739C32.9106 32.9867 31.7889 33.9075 31.0177 34.0001H15.0121ZM29.3395 29.2737C29.2804 29.7585 28.9459 30.1184 28.5165 30.3207C26.9663 31.0517 25.2424 29.7176 25.6243 28.0344C25.9907 26.4196 28.0164 25.9517 29.1028 27.1678L30.0271 26.2448C28.4665 24.6228 25.7416 24.9534 24.6315 26.9143C23.2365 29.3792 25.4187 32.102 28.1078 31.7607C29.9745 31.5235 31.0444 29.7744 30.6302 27.9849H27.3603V29.2737H29.3395Z" fill="white"/>
</g>
<defs>
<clipPath id="clip0_1212_6885">
<rect width="22" height="22" fill="white" transform="translate(12 12)"/>
</clipPath>
</defs>
</svg>
