<svg xmlns="http://www.w3.org/2000/svg" width="46" height="47" viewBox="0 0 46 47" fill="none">
  <rect y="0.5" width="46" height="46" rx="23" fill="white"/>
  <path d="M28.0761 13.4375H19.3603C17.6573 13.4395 16.0247 14.117 14.8205 15.3213C13.6164 16.5256 12.9392 18.1584 12.9375 19.8614L12.9375 28.5772C12.9395 30.2802 13.617 31.9128 14.8213 33.117C16.0256 34.3211 17.6584 34.9983 19.3614 35H28.0771C29.7802 34.998 31.4128 34.3205 32.617 33.1162C33.8211 31.9119 34.4983 30.2791 34.5 28.5761V19.8603C34.498 18.1573 33.8205 16.5247 32.6162 15.3205C31.4119 14.1164 29.7791 13.4392 28.0761 13.4375V13.4375ZM32.3313 28.5761C32.3313 29.1349 32.2213 29.6882 32.0074 30.2045C31.7936 30.7208 31.4801 31.1899 31.085 31.585C30.6899 31.9801 30.2208 32.2936 29.7045 32.5074C29.1882 32.7213 28.6349 32.8313 28.0761 32.8313H19.3603C18.232 32.831 17.1499 32.3826 16.3521 31.5846C15.5543 30.7866 15.1062 29.7044 15.1062 28.5761V19.8603C15.1065 18.732 15.5549 17.6499 16.3529 16.8521C17.1509 16.0543 18.2331 15.6062 19.3614 15.6062H28.0771C29.2055 15.6065 30.2876 16.0549 31.0854 16.8529C31.8832 17.6509 32.3313 18.7331 32.3313 19.8614V28.5772V28.5761Z" fill="#004B82"/>
  <path d="M23.7176 18.6425C22.2395 18.6447 20.8227 19.233 19.7776 20.2783C18.7326 21.3235 18.1446 22.7405 18.1426 24.2186C18.1443 25.697 18.7323 27.1144 19.7776 28.16C20.8229 29.2055 22.2402 29.7938 23.7187 29.7958C25.1973 29.7941 26.6149 29.2059 27.6605 28.1604C28.706 27.1148 29.2942 25.6972 29.2959 24.2186C29.2936 22.7401 28.7051 21.3229 27.6593 20.2778C26.6136 19.2327 25.1961 18.645 23.7176 18.6435V18.6425ZM23.7176 27.6271C22.8139 27.6271 21.9472 27.2681 21.3082 26.6291C20.6692 25.9901 20.3102 25.1234 20.3102 24.2197C20.3102 23.3159 20.6692 22.4492 21.3082 21.8102C21.9472 21.1712 22.8139 20.8122 23.7176 20.8122C24.6213 20.8122 25.488 21.1712 26.127 21.8102C26.7661 22.4492 27.1251 23.3159 27.1251 24.2197C27.1251 25.1234 26.7661 25.9901 26.127 26.6291C25.488 27.2681 24.6213 27.6271 23.7176 27.6271Z" fill="#004B82"/>
  <path d="M29.3067 20.0203C30.0445 20.0203 30.6427 19.4222 30.6427 18.6844C30.6427 17.9465 30.0445 17.3484 29.3067 17.3484C28.5688 17.3484 27.9707 17.9465 27.9707 18.6844C27.9707 19.4222 28.5688 20.0203 29.3067 20.0203Z" fill="#004B82"/>
</svg>