<svg width="57" height="57" viewBox="0 0 57 57" fill="none" xmlns="http://www.w3.org/2000/svg">
<path d="M34.5418 15.6201H23.6475C21.5188 15.6226 19.478 16.4694 17.9729 17.9748C16.4678 19.4802 15.6213 21.5211 15.6191 23.6498L15.6191 34.5442C15.6216 36.6729 16.4685 38.7137 17.9738 40.2188C19.4792 41.7239 21.5201 42.5704 23.6488 42.5725H34.5432C36.6719 42.57 38.7127 41.7232 40.2178 40.2178C41.7229 38.7125 42.5694 36.6715 42.5715 34.5428V23.6485C42.569 21.5197 41.7222 19.479 40.2168 17.9738C38.7115 16.4687 36.6705 15.6223 34.5418 15.6201V15.6201ZM39.8608 34.5428C39.8608 35.2413 39.7232 35.933 39.4559 36.5783C39.1886 37.2236 38.7968 37.81 38.3029 38.3039C37.809 38.7978 37.2226 39.1896 36.5773 39.4569C35.932 39.7242 35.2403 39.8617 34.5418 39.8617H23.6475C22.237 39.8614 20.8845 39.3008 19.8873 38.3034C18.8901 37.3059 18.3299 35.9532 18.3299 34.5428V23.6485C18.3303 22.238 18.8908 20.8855 19.8883 19.8883C20.8857 18.8911 22.2384 18.3309 23.6488 18.3309H34.5432C35.9536 18.3312 37.3062 18.8918 38.3034 19.8892C39.3006 20.8867 39.8608 22.2394 39.8608 23.6498V34.5442V34.5428Z" fill="white"/>
<path d="M29.0936 22.1262C27.2461 22.1291 25.475 22.8644 24.1687 24.1709C22.8624 25.4775 22.1275 27.2486 22.125 29.0962C22.1271 30.9442 22.8621 32.7159 24.1687 34.0228C25.4754 35.3297 27.2469 36.065 29.095 36.0675C30.9432 36.0653 32.7151 35.3302 34.022 34.0233C35.329 32.7164 36.0641 30.9444 36.0663 29.0962C36.0634 27.2482 35.3277 25.4767 34.0206 24.1704C32.7135 22.864 30.9416 22.1294 29.0936 22.1276V22.1262ZM29.0936 33.3567C27.964 33.3567 26.8807 32.908 26.0819 32.1092C25.2831 31.3105 24.8344 30.2271 24.8344 29.0975C24.8344 27.9679 25.2831 26.8846 26.0819 26.0858C26.8807 25.2871 27.964 24.8383 29.0936 24.8383C30.2232 24.8383 31.3066 25.2871 32.1053 26.0858C32.9041 26.8846 33.3528 27.9679 33.3528 29.0975C33.3528 30.2271 32.9041 31.3105 32.1053 32.1092C31.3066 32.908 30.2232 33.3567 29.0936 33.3567V33.3567Z" fill="white"/>
<path d="M36.0802 23.8484C37.0025 23.8484 37.7501 23.1007 37.7501 22.1785C37.7501 21.2562 37.0025 20.5085 36.0802 20.5085C35.1579 20.5085 34.4103 21.2562 34.4103 22.1785C34.4103 23.1007 35.1579 23.8484 36.0802 23.8484Z" fill="white"/>
</svg>
