<svg xmlns="http://www.w3.org/2000/svg" width="46" height="46" viewBox="0 0 46 46" fill="none">
  <rect width="46" height="46" rx="23" fill="#004B82"/>
  <path d="M28.0761 12.9375H19.3603C17.6573 12.9395 16.0247 13.617 14.8205 14.8213C13.6164 16.0256 12.9392 17.6584 12.9375 19.3614L12.9375 28.0772C12.9395 29.7802 13.617 31.4128 14.8213 32.617C16.0256 33.8211 17.6584 34.4983 19.3614 34.5H28.0771C29.7802 34.498 31.4128 33.8205 32.617 32.6162C33.8211 31.4119 34.4983 29.7791 34.5 28.0761V19.3603C34.498 17.6573 33.8205 16.0247 32.6162 14.8205C31.4119 13.6164 29.7791 12.9392 28.0761 12.9375V12.9375ZM32.3313 28.0761C32.3313 28.6349 32.2213 29.1882 32.0074 29.7045C31.7936 30.2208 31.4801 30.6899 31.085 31.085C30.6899 31.4801 30.2208 31.7936 29.7045 32.0074C29.1882 32.2213 28.6349 32.3313 28.0761 32.3313H19.3603C18.232 32.331 17.1499 31.8826 16.3521 31.0846C15.5543 30.2866 15.1062 29.2044 15.1062 28.0761V19.3603C15.1065 18.232 15.5549 17.1499 16.3529 16.3521C17.1509 15.5543 18.2331 15.1062 19.3614 15.1062H28.0771C29.2055 15.1065 30.2876 15.5549 31.0854 16.3529C31.8832 17.1509 32.3313 18.2331 32.3313 19.3614V28.0772V28.0761Z" fill="white"/>
  <path d="M23.7186 18.1425C22.2405 18.1447 20.8236 18.733 19.7786 19.7783C18.7335 20.8235 18.1456 22.2405 18.1436 23.7186C18.1453 25.197 18.7333 26.6144 19.7786 27.66C20.8239 28.7055 22.2412 29.2938 23.7197 29.2958C25.1983 29.2941 26.6159 28.7059 27.6615 27.6604C28.707 26.6148 29.2952 25.1972 29.2969 23.7186C29.2946 22.2401 28.706 20.8229 27.6603 19.7778C26.6146 18.7327 25.197 18.145 23.7186 18.1435V18.1425ZM23.7186 27.1271C22.8149 27.1271 21.9482 26.7681 21.3092 26.1291C20.6701 25.4901 20.3111 24.6234 20.3111 23.7197C20.3111 22.8159 20.6701 21.9492 21.3092 21.3102C21.9482 20.6712 22.8149 20.3122 23.7186 20.3122C24.6223 20.3122 25.489 20.6712 26.128 21.3102C26.767 21.9492 27.126 22.8159 27.126 23.7197C27.126 24.6234 26.767 25.4901 26.128 26.1291C25.489 26.7681 24.6223 27.1271 23.7186 27.1271Z" fill="white"/>
  <path d="M29.3067 19.5203C30.0445 19.5203 30.6427 18.9222 30.6427 18.1844C30.6427 17.4465 30.0445 16.8484 29.3067 16.8484C28.5688 16.8484 27.9707 17.4465 27.9707 18.1844C27.9707 18.9222 28.5688 19.5203 29.3067 19.5203Z" fill="white"/>
</svg>