<svg xmlns="http://www.w3.org/2000/svg" width="46" height="47" viewBox="0 0 46 47" fill="none">
  <rect y="0.5" width="46" height="46" rx="23" fill="white"/>
  <path d="M17.4095 15.6746C17.4092 16.2676 17.1733 16.8362 16.7538 17.2554C16.3342 17.6745 15.7654 17.9098 15.1724 17.9095C14.5793 17.9092 14.0107 17.6733 13.5916 17.2538C13.1725 16.8342 12.9372 16.2654 12.9375 15.6724C12.9378 15.0793 13.1737 14.5107 13.5932 14.0916C14.0127 13.6725 14.5816 13.4372 15.1746 13.4375C15.7676 13.4378 16.3362 13.6737 16.7554 14.0932C17.1745 14.5127 17.4098 15.0816 17.4095 15.6746ZM17.4766 19.5652H13.0046V33.5625H17.4766V19.5652ZM24.5423 19.5652H20.0927V33.5625H24.4976V26.2173C24.4976 22.1254 29.8304 21.7453 29.8304 26.2173V33.5625H34.2465V24.6968C34.2465 17.7988 26.3534 18.0559 24.4976 21.4435L24.5423 19.5652Z" fill="#004B82"/>
</svg>