<svg xmlns="http://www.w3.org/2000/svg" width="46" height="46" viewBox="0 0 46 46" fill="none">
  <rect width="46" height="46" rx="23" fill="#004B82"/>
  <path d="M17.4095 15.1746C17.4092 15.7676 17.1733 16.3362 16.7538 16.7554C16.3342 17.1745 15.7654 17.4098 15.1724 17.4095C14.5793 17.4092 14.0107 17.1733 13.5916 16.7538C13.1725 16.3342 12.9372 15.7654 12.9375 15.1724C12.9378 14.5793 13.1737 14.0107 13.5932 13.5916C14.0127 13.1725 14.5816 12.9372 15.1746 12.9375C15.7676 12.9378 16.3362 13.1737 16.7554 13.5932C17.1745 14.0127 17.4098 14.5816 17.4095 15.1746ZM17.4766 19.0652H13.0046V33.0625H17.4766V19.0652ZM24.5423 19.0652H20.0927V33.0625H24.4976V25.7173C24.4976 21.6254 29.8304 21.2453 29.8304 25.7173V33.0625H34.2465V24.1968C34.2465 17.2988 26.3534 17.5559 24.4976 20.9435L24.5423 19.0652Z" fill="white"/>
</svg>