<svg width="58" height="57" viewBox="0 0 58 57" fill="none" xmlns="http://www.w3.org/2000/svg">
<path d="M20.5127 18.6162C20.5123 19.4104 20.1936 20.1719 19.6268 20.7332C19.06 21.2945 18.2914 21.6096 17.4902 21.6092C16.689 21.6088 15.9207 21.2929 15.3545 20.7311C14.7882 20.1692 14.4703 19.4074 14.4707 18.6132C14.4711 17.819 14.7898 17.0574 15.3566 16.4961C15.9234 15.9348 16.692 15.6197 17.4932 15.6201C18.2944 15.6205 19.0627 15.9364 19.6289 16.4983C20.1952 17.0601 20.5131 17.822 20.5127 18.6162ZM20.6033 23.8267H14.5613V42.5725H20.6033V23.8267ZM30.1496 23.8267H24.1379V42.5725H30.0892V32.7354C30.0892 27.2554 37.2943 26.7463 37.2943 32.7354V42.5725H43.2607V30.6991C43.2607 21.461 32.5966 21.8053 30.0892 26.3421L30.1496 23.8267Z" fill="white"/>
</svg>
