<svg width="153" height="150" viewBox="0 0 153 150" fill="none" xmlns="http://www.w3.org/2000/svg">
<g clip-path="url(#clip0_1212_6919)">
<path d="M21.6564 148.877H19.6313L18.7913 146.381H14.7508L13.9277 148.877H12.3105L15.7983 138.388H18.13L21.6564 148.877ZM18.2869 144.865L16.7542 140.186L15.2215 144.865H18.2844H18.2869Z" fill="#004B82"/>
<path d="M29.3852 148.877H22.9189V138.388H24.9127V147.164H29.3852V148.877Z" fill="#004B82"/>
<path d="M37.8135 138.388V145.128C37.8135 146.039 37.7097 146.742 37.5045 147.234C37.2994 147.726 36.9035 148.15 36.3146 148.506C35.7256 148.863 35.0088 149.041 34.164 149.041C33.3192 149.041 32.6023 148.887 32.052 148.581C31.4993 148.273 31.1034 147.853 30.8621 147.316C30.6207 146.781 30.5 146.099 30.5 145.268V138.39H32.431V145.13C32.431 146.053 32.6241 146.658 33.0127 146.947C33.3988 147.236 33.8502 147.381 34.3643 147.381C34.9533 147.381 35.4264 147.227 35.7812 146.916C36.136 146.605 36.3122 146.01 36.3122 145.13V138.39H37.8135V138.388Z" fill="#004B82"/>
<path d="M50.2826 148.877H48.3516V139.694L45.4431 148.877H44.4511L41.5257 139.694V148.877H39.9785V138.388H42.9425L45.1438 145.142L47.3065 138.388H50.285V148.877H50.2826Z" fill="#004B82"/>
<path d="M55.6025 135.046L56.1118 136.198L52.9016 137.549L52.5781 136.728L55.6025 135.046ZM54.4946 148.877H52.5998V138.388H54.4946V148.877Z" fill="#004B82"/>
<path d="M64.7405 148.877H62.9012L58.9138 142.176C58.851 142.075 58.7521 141.906 58.6145 141.677C58.5517 141.576 58.4576 141.415 58.3297 141.193V148.877H56.8066V138.388H58.8993L62.5778 144.567C62.6092 144.617 62.8312 144.993 63.2464 145.697V138.388H64.7405V148.877Z" fill="#004B82"/>
<path d="M68.9426 148.877H67.0479V138.388H68.9426V148.877Z" fill="#004B82"/>
<path d="M75.125 149.039C73.7298 149.039 72.6413 148.516 71.8641 147.47C71.0868 146.424 70.6982 145.135 70.6982 143.598C70.6982 142.06 71.111 140.795 71.9365 139.766C72.762 138.74 73.8529 138.227 75.207 138.227C76.5611 138.227 77.6497 138.74 78.4438 139.766C79.2355 140.793 79.6337 142.077 79.6337 143.619C79.6337 145.239 79.221 146.545 78.3979 147.542C77.5749 148.538 76.4815 149.036 75.1225 149.036L75.125 149.039ZM75.1394 147.516C75.8225 147.516 76.3994 147.234 76.8725 146.67C77.3456 146.106 77.5797 145.085 77.5797 143.605C77.5797 142.4 77.3842 141.458 76.9956 140.774C76.6046 140.089 76.0011 139.747 75.1781 139.747C73.5561 139.747 72.7451 141.051 72.7451 143.658C72.7451 144.923 72.9526 145.882 73.3654 146.535C73.7781 147.188 74.3695 147.516 75.1394 147.516Z" fill="#004B82"/>
<path d="M92.1653 148.877H85.3369V138.388H92.0953V139.947H87.2317V142.791H91.1418V144.311H87.2317V147.246H92.1653V148.875V148.877Z" fill="#004B82"/>
<path d="M101.782 148.877H99.8578L96.6162 138.388H98.6172L101.026 146.427L103.49 138.388H105.069L101.782 148.877Z" fill="#004B82"/>
<path d="M108.154 148.877H106.259V138.388H108.154V148.877Z" fill="#004B82"/>
<path d="M110.41 148.877V138.388H114.282C115.713 138.388 116.862 138.894 117.731 139.906C118.597 140.918 119.032 142.166 119.032 143.653C119.032 145.14 118.585 146.381 117.692 147.381C116.799 148.381 115.522 148.88 113.859 148.88H110.41V148.877ZM112.358 147.333H113.937C114.784 147.333 115.503 147.015 116.092 146.381C116.681 145.745 116.978 144.8 116.978 143.545C116.978 142.521 116.72 141.653 116.203 140.945C115.686 140.236 115.006 139.88 114.159 139.88H112.358V147.333Z" fill="#004B82"/>
<path d="M128.977 148.877H126.976L125.344 144.567H122.682V148.877H120.787V138.388H125.344C126.611 138.388 127.543 138.675 128.139 139.246C128.735 139.817 129.032 140.557 129.032 141.463C129.032 142.81 128.4 143.738 127.138 144.244L128.977 148.877ZM122.679 143.053H125.035C125.718 143.053 126.225 142.909 126.558 142.622C126.891 142.335 127.058 141.94 127.058 141.439C127.058 140.978 126.894 140.605 126.565 140.321C126.237 140.036 125.779 139.894 125.187 139.894H122.677V143.053H122.679Z" fill="#004B82"/>
<path d="M134.648 149.039C133.253 149.039 132.167 148.516 131.387 147.47C130.61 146.424 130.222 145.135 130.222 143.598C130.222 142.06 130.634 140.795 131.46 139.766C132.285 138.74 133.376 138.227 134.73 138.227C136.085 138.227 137.173 138.74 137.967 139.766C138.759 140.793 139.157 142.077 139.157 143.619C139.157 145.239 138.744 146.545 137.921 147.542C137.098 148.538 136.005 149.036 134.646 149.036L134.648 149.039ZM134.663 147.516C135.346 147.516 135.923 147.234 136.396 146.67C136.869 146.106 137.103 145.085 137.103 143.605C137.103 142.4 136.908 141.458 136.519 140.774C136.128 140.089 135.525 139.747 134.701 139.747C133.079 139.747 132.268 141.051 132.268 143.658C132.268 144.923 132.474 145.882 132.889 146.535C133.302 147.188 133.893 147.516 134.663 147.516Z" fill="#004B82"/>
<path fill-rule="evenodd" clip-rule="evenodd" d="M77.5985 98.3581C77.6516 100.898 77.3812 103.276 77.4368 105.819C89.4787 107.573 87.2726 96.5484 77.5985 98.3581ZM70.5119 91.5604C74.6272 91.5339 78.6388 91.6471 82.7541 91.6206C93.6351 92.052 96.4736 107.65 85.4333 111.727C88.2767 117.132 91.1586 122.701 94.0019 128.106H86.044C83.2007 122.918 80.5215 117.525 77.6781 112.337C77.7868 117.66 77.7312 123.188 77.8399 128.511C75.3489 128.484 72.858 128.455 70.3695 128.429C70.396 116.185 70.4853 103.802 70.5119 91.558V91.5604ZM107.97 113.674L113.167 101.512L118.202 113.836L107.97 113.674ZM95.3029 128.103C99.9855 116.024 104.791 103.455 109.474 91.3748C111.883 91.3218 114.212 91.4278 116.621 91.3748C121.25 103.428 125.959 116.009 130.589 128.062C128.153 128.171 125.757 128.077 123.321 128.183C122.373 125.588 121.506 123.033 120.56 120.441C115.551 120.467 110.707 120.494 105.699 120.523C104.859 123.118 103.736 125.59 102.896 128.185C100.405 128.13 97.7939 128.159 95.3029 128.103ZM134.962 91.2616H141.622V121.243H152.013V128.075L141.622 128.07H134.962V91.2592V91.2616ZM60.1885 98.3148V128.222H52.9595V98.3148H46.2494V91.505H66.4714V98.3148H60.1885ZM36.3122 91.5748H43.6209V128.222H36.3122V91.5748ZM0.0126953 91.1483H6.8338C10.0006 99.8497 13.1673 108.554 16.3365 117.255C19.3416 108.554 22.3249 99.9919 25.3299 91.2905C27.874 91.3724 30.4397 91.3098 32.9838 91.3917C28.6246 103.58 23.9831 115.85 19.624 128.038C17.4034 128.012 15.0621 128.065 12.8439 128.038C8.43166 115.795 4.42493 103.39 0.0126953 91.1483Z" fill="#004B82"/>
<path fill-rule="evenodd" clip-rule="evenodd" d="M41.5358 18.8958C50.65 12.8595 59.8292 7.02323 68.9433 0.986938C70.6764 1.83033 72.2115 2.47372 73.9445 3.31712C74.1231 26.7539 73.9011 50.1882 74.0773 73.6249C72.2091 74.8683 70.5436 75.943 68.6754 77.1864L41 64.5861L46.0446 59.6655C50.7127 61.4415 61.0071 66.1211 65.6752 67.8971C65.7186 59.2414 65.7983 50.9521 65.8417 42.2988C58.9869 45.8628 58.7865 33.7878 65.9407 37.2722C66.0735 28.4406 66.4065 19.4742 66.5417 10.6426L46.0688 21.5609L46.0446 59.6655L41.0024 64.5861C41.2703 52.3352 41.2679 31.1467 41.5358 18.8958Z" fill="#004B82"/>
<path fill-rule="evenodd" clip-rule="evenodd" d="M110.491 18.8958C101.377 12.8595 92.1973 7.02323 83.0831 0.986938C81.3501 1.83033 79.815 2.47372 78.082 3.31712C77.9034 26.7539 78.1254 50.1882 77.9492 73.6249C79.8174 74.8683 81.4829 75.943 83.3511 77.1864L111.026 64.5861L105.982 59.6655C101.314 61.4415 91.0194 66.1211 86.3513 67.8971C86.3078 59.2414 86.2282 50.9521 86.1847 42.2988C93.0396 45.8628 93.24 33.7878 86.0858 37.2722C85.953 28.4406 85.6199 19.4742 85.4848 10.6426L105.958 21.5609L105.982 59.6679L111.024 64.5885C110.756 52.3376 110.759 31.1491 110.491 18.8982" fill="#004B82"/>
</g>
<defs>
<clipPath id="clip0_1212_6919">
<rect width="152" height="148.052" fill="white" transform="translate(0.0126953 0.986938)"/>
</clipPath>
</defs>
</svg>
