<svg xmlns="http://www.w3.org/2000/svg" width="252" height="55" viewBox="0 0 252 55" fill="none">
  <path d="M72.3549 46.2387H70.9351L70.3479 44.4815H67.5128L66.9344 46.2387H65.7995L68.249 38.8639H69.8878L72.3636 46.2387H72.3549ZM69.9886 43.4167L68.915 40.1259L67.8415 43.4167H69.993H69.9886Z" fill="#005386"/>
  <path d="M77.7798 46.2387H73.2445V38.8639H74.6423V45.0337H77.7798V46.2387Z" fill="#005386"/>
  <path d="M83.6998 38.8639V43.6007C83.6998 44.2405 83.6297 44.7357 83.4851 45.0819C83.3405 45.428 83.0644 45.726 82.6525 45.9758C82.2406 46.2255 81.7367 46.3526 81.1408 46.3526C80.5448 46.3526 80.0453 46.2431 79.6597 46.0284C79.274 45.8136 78.9936 45.5157 78.8227 45.1388C78.6518 44.762 78.5686 44.2843 78.5686 43.6972V38.8595H79.927V43.5964C79.927 44.2449 80.0628 44.6699 80.3345 44.8759C80.6062 45.0775 80.9217 45.1826 81.281 45.1826C81.6973 45.1826 82.0259 45.0731 82.2757 44.854C82.5255 44.6349 82.6482 44.2186 82.6482 43.5964V38.8595H83.6998V38.8639Z" fill="#005386"/>
  <path d="M92.4505 46.2387H91.0965V39.7797L89.0545 46.2387H88.3578L86.3027 39.7797V46.2387H85.2159V38.8639H87.2974L88.8442 43.6139L90.3604 38.8639H92.4505V46.2387Z" fill="#005386"/>
  <path d="M96.184 36.5108L96.5389 37.3214L94.2866 38.2723L94.0587 37.6939L96.184 36.5108ZM95.4084 46.2387H94.0806V38.8639H95.4084V46.2387Z" fill="#005386"/>
  <path d="M102.604 46.2387H101.311L98.5109 41.5281C98.4671 41.458 98.397 41.3397 98.3006 41.1775C98.2567 41.1074 98.191 40.9935 98.099 40.8358V46.2387H97.0298V38.8639H98.4977L101.079 43.2108C101.101 43.2458 101.258 43.5131 101.548 44.0039V38.8639H102.595V46.2387H102.604Z" fill="#005386"/>
  <path d="M105.553 38.8639H104.225V46.2387H105.553V38.8639Z" fill="#005386"/>
  <path d="M109.891 46.3526C108.909 46.3526 108.147 45.9845 107.603 45.2484C107.056 44.5122 106.784 43.6051 106.784 42.5228C106.784 41.4404 107.073 40.5509 107.656 39.8279C108.234 39.1049 109.001 38.7455 109.952 38.7455C110.903 38.7455 111.67 39.1049 112.226 39.8279C112.783 40.5509 113.063 41.4536 113.063 42.5359C113.063 43.6752 112.774 44.5954 112.196 45.2966C111.617 45.9977 110.85 46.3482 109.895 46.3482M109.904 45.2834C110.382 45.2834 110.789 45.0862 111.118 44.6875C111.451 44.2931 111.613 43.5745 111.613 42.5315C111.613 41.6858 111.477 41.0198 111.201 40.5421C110.929 40.0601 110.5 39.8191 109.926 39.8191C108.787 39.8191 108.217 40.7349 108.217 42.571C108.217 43.4605 108.362 44.1354 108.651 44.5955C108.94 45.0556 109.356 45.2834 109.895 45.2834" fill="#005386"/>
  <path d="M121.853 46.2387H117.06V38.8639H121.805V39.9594H118.392V41.9575H121.135V43.0311H118.392V45.095H121.853V46.2387Z" fill="#005386"/>
  <path d="M128.606 46.2387H127.252L124.978 38.8639H126.384L128.076 44.5166L129.802 38.8639H130.911L128.606 46.2387Z" fill="#005386"/>
  <path d="M133.076 38.8639H131.748V46.2387H133.076V38.8639Z" fill="#005386"/>
  <path d="M134.662 46.2387V38.8639H137.379C138.382 38.8639 139.193 39.2188 139.798 39.9331C140.407 40.643 140.709 41.5237 140.709 42.5666C140.709 43.6095 140.398 44.4859 139.767 45.187C139.14 45.8882 138.242 46.2387 137.076 46.2387H134.658H134.662ZM136.029 45.152H137.138C137.734 45.152 138.238 44.9285 138.65 44.4815C139.066 44.0346 139.272 43.3685 139.272 42.4878C139.272 41.7691 139.092 41.1556 138.728 40.6605C138.365 40.1609 137.887 39.9112 137.296 39.9112H136.029V45.152Z" fill="#005386"/>
  <path d="M147.698 46.2387H146.292L145.148 43.2064H143.277V46.2387H141.949V38.8639H145.148C146.038 38.8639 146.69 39.0654 147.111 39.4686C147.527 39.8717 147.738 40.3888 147.738 41.0286C147.738 41.9751 147.295 42.628 146.41 42.9829L147.703 46.2431L147.698 46.2387ZM143.277 42.1416H144.929C145.407 42.1416 145.766 42.0408 145.998 41.8392C146.23 41.6377 146.349 41.3616 146.349 41.0067C146.349 40.6824 146.235 40.4195 146.002 40.2223C145.77 40.0207 145.45 39.9243 145.034 39.9243H143.273V42.146L143.277 42.1416Z" fill="#005386"/>
  <path d="M151.677 46.3526C150.696 46.3526 149.933 45.9845 149.39 45.2484C148.842 44.5122 148.57 43.6051 148.57 42.5228C148.57 41.4404 148.86 40.5509 149.442 39.8279C150.021 39.1049 150.788 38.7455 151.738 38.7455C152.689 38.7455 153.456 39.1049 154.013 39.8279C154.569 40.5509 154.85 41.4536 154.85 42.5359C154.85 43.6752 154.56 44.5954 153.982 45.2966C153.404 45.9977 152.637 46.3482 151.682 46.3482M151.69 45.2834C152.168 45.2834 152.575 45.0862 152.904 44.6875C153.237 44.2931 153.399 43.5745 153.399 42.5315C153.399 41.6858 153.263 41.0198 152.987 40.5421C152.716 40.0601 152.286 39.8191 151.712 39.8191C150.573 39.8191 150.003 40.7349 150.003 42.571C150.003 43.4605 150.148 44.1354 150.437 44.5955C150.726 45.0556 151.143 45.2834 151.682 45.2834" fill="#005386"/>
  <path fill-rule="evenodd" clip-rule="evenodd" d="M111.626 10.7142C111.665 12.502 111.473 14.1715 111.512 15.9594C119.965 17.1907 118.418 9.43903 111.626 10.7142ZM106.652 5.93347C109.54 5.91594 112.358 5.99482 115.245 5.97729C122.883 6.27964 124.877 17.2477 117.125 20.1179C119.119 23.917 121.144 27.8345 123.142 31.6336H117.555C115.561 27.9835 113.677 24.1931 111.683 20.5429C111.757 24.2851 111.722 28.1719 111.797 31.9185C110.048 31.9009 108.3 31.879 106.552 31.8615C106.569 23.251 106.631 14.544 106.652 5.93347ZM132.949 21.485L136.599 12.9315L140.135 21.599L132.953 21.485H132.949ZM124.058 31.6336C127.344 23.137 130.718 14.303 134.005 5.80639C135.696 5.76695 137.331 5.84582 139.022 5.80639C142.273 14.2811 145.577 23.1283 148.829 31.603C147.12 31.6775 145.437 31.6117 143.728 31.6862C143.062 29.8633 142.453 28.0667 141.791 26.2395C138.277 26.257 134.872 26.2789 131.358 26.2964C130.771 28.1193 129.982 29.859 129.39 31.6819C127.642 31.6424 125.81 31.6643 124.062 31.6249M151.901 5.72751H156.576V26.8091H163.872V31.6117H156.576H151.901V5.72751ZM99.4047 10.6835V31.7125H94.3304V10.6835H89.6198V5.89403H103.817V10.6835H99.4047ZM82.6437 5.94661H87.775V31.7169H82.6437V5.94661ZM57.1626 5.64426H61.9521C64.1738 11.7615 66.3998 17.8831 68.6214 24.0003C70.7292 17.8831 72.8281 11.8623 74.9358 5.74066C76.7237 5.79762 78.5247 5.75381 80.3081 5.81077C77.2495 14.3819 73.9894 23.01 70.9307 31.5811C69.3708 31.5635 67.7275 31.5986 66.1719 31.5811C63.0739 22.9705 60.2607 14.2504 57.1626 5.63987" fill="#005386"/>
  <path fill-rule="evenodd" clip-rule="evenodd" d="M0.376849 12.8131C6.81394 8.54074 13.2992 4.41293 19.7407 0.140518C20.9677 0.736464 22.05 1.19219 23.2726 1.78814C23.3997 18.3695 23.2419 34.9552 23.369 51.5365C22.05 52.4173 20.8713 53.1754 19.5523 54.0561L0 45.1388L3.56253 41.6596C6.86215 42.9172 14.1318 46.2299 17.4314 47.4832C17.4621 41.3572 17.5191 35.4942 17.5497 29.3682C12.7077 31.8922 12.5675 23.343 17.6199 25.81C17.7163 19.5613 17.9485 13.2163 18.0449 6.9676L3.58006 14.693L3.56253 41.6596L0 45.1432C0.188424 36.4757 0.188424 21.4807 0.376849 12.8131Z" fill="#005386"/>
  <path fill-rule="evenodd" clip-rule="evenodd" d="M49.0911 12.8131C42.654 8.54074 36.1687 4.41293 29.7272 0.140518C28.5003 0.736464 27.4179 1.19219 26.1953 1.78814C26.0683 18.3695 26.226 34.9552 26.0989 51.5365C27.4179 52.4173 28.5966 53.1754 29.9156 54.0561L49.4679 45.1388L45.9054 41.6596C42.6058 42.9172 35.3361 46.2299 32.0365 47.4832C32.0058 41.3572 31.9489 35.4942 31.9182 29.3682C36.7602 31.8922 36.9005 23.343 31.8481 25.81C31.7517 19.5613 31.5194 13.2163 31.423 6.9676L45.8879 14.693L45.9054 41.6596L49.4679 45.1432C49.2795 36.4757 49.2795 21.4807 49.0911 12.8131Z" fill="#005386"/>
  <path d="M215.458 21.7392C215.975 22.0941 216.493 22.4096 216.966 22.7777C218.526 23.9871 219.371 25.5734 219.319 27.5628C219.288 28.724 219.047 29.8546 218.495 30.9019C218.123 31.603 217.601 32.1814 216.996 32.6766C216.322 33.2287 215.577 33.6669 214.762 33.9868C213.381 34.5301 211.935 34.815 210.48 35.0472C207.553 35.5117 204.6 35.4635 201.655 35.332C199.78 35.2488 197.913 35.0209 196.095 34.5082C195.034 34.2102 194.031 33.7677 193.075 33.2155C191.73 32.4399 190.749 31.3269 190.065 29.9466C189.342 28.4962 189.048 26.945 189.053 25.3324C189.053 25.0651 189.145 24.9599 189.403 24.9555C189.868 24.9468 190.328 24.9555 190.792 24.9555C192.181 24.9555 193.566 24.9556 194.955 24.9599C195.187 24.9599 195.42 24.9687 195.648 24.9862C195.81 24.9994 195.906 25.1045 195.924 25.2667C195.954 25.5252 195.972 25.7837 196.007 26.0423C196.16 27.1728 196.726 28.0273 197.707 28.6232C198.518 29.1184 199.416 29.3156 200.332 29.4514C201.191 29.5785 202.054 29.6399 202.926 29.6399C204.95 29.6399 206.975 29.7231 208.991 29.4953C209.626 29.4251 210.248 29.2849 210.84 29.0571C212.137 28.5619 212.588 27.5321 212.461 26.2132C212.378 25.3455 211.799 24.754 210.984 24.4385C210.112 24.0967 209.192 24.0047 208.268 23.9258C206.221 23.7549 204.166 23.7724 202.115 23.7637C200.972 23.7593 201.09 23.8338 201.086 22.7383C201.086 21.84 201.086 20.9461 201.099 20.0478C201.103 19.6753 201.186 19.592 201.568 19.5877C202.781 19.5701 203.995 19.5614 205.209 19.557C206.743 19.5526 208.268 19.4211 209.788 19.2327C210.191 19.1801 210.581 19.0793 210.958 18.9347C211.975 18.5404 212.43 17.7297 212.466 16.7087C212.501 15.7096 212.058 14.9121 211.129 14.4564C210.419 14.1102 209.652 13.9568 208.872 13.8692C206.48 13.6063 204.083 13.615 201.686 13.7991C200.792 13.8692 199.907 13.9656 199.03 14.1672C197.041 14.6229 196.213 15.8455 195.919 17.5588C195.875 17.8086 195.985 18.1153 195.783 18.2994C195.551 18.5097 195.231 18.4001 194.946 18.4001C193.268 18.4045 191.594 18.4001 189.916 18.3958C189.684 18.3958 189.456 18.3914 189.224 18.3739C189.105 18.3651 188.996 18.3125 189 18.1679C189.088 15.8411 189.557 13.6413 191.134 11.8097C191.743 11.0998 192.449 10.5039 193.259 10.0481C194.092 9.57926 194.964 9.19802 195.889 8.93949C197.874 8.37859 199.902 8.10692 201.958 7.98861C203.605 7.8922 205.257 7.8922 206.9 7.98861C208.916 8.10692 210.936 8.2822 212.908 8.77298C214.24 9.10601 215.485 9.6187 216.606 10.4162C218.048 11.4416 218.885 12.8307 219.17 14.5791C219.31 15.4423 219.35 16.288 219.187 17.16C219.003 18.1328 218.57 18.9523 217.925 19.6797C217.422 20.2449 216.839 20.7182 216.208 21.1301C215.945 21.301 215.656 21.4368 215.458 21.7304V21.7392Z" fill="#005386"/>
  <path d="M247.368 21.7786C248.398 22.2913 249.195 22.9092 249.879 23.6629C251.014 24.9073 251.487 26.3753 251.307 28.0448C251.25 28.5619 251.22 29.079 251.093 29.5873C250.759 30.9325 250.032 32.0017 248.923 32.8343C247.648 33.794 246.193 34.3242 244.664 34.6835C242.517 35.1918 240.339 35.3978 238.135 35.4328C235.558 35.4722 232.991 35.4591 230.44 35.0297C228.898 34.7711 227.39 34.3811 225.971 33.6975C224.043 32.7642 222.676 31.3225 221.891 29.3024C221.453 28.1807 221.26 27.0282 221.177 25.8407C221.164 25.6698 221.168 25.4945 221.177 25.3236C221.186 25.1571 221.295 25.0739 221.453 25.0519C221.541 25.0432 221.624 25.0344 221.711 25.0344C223.648 25.0344 225.585 25.0256 227.522 25.03C227.921 25.03 227.965 25.0826 228.004 25.4682C228.245 27.6592 229.152 28.7196 231.277 29.2981C232.062 29.5128 232.872 29.5697 233.674 29.6486C235.927 29.8765 238.179 29.7582 240.431 29.6267C241.15 29.5829 241.873 29.4909 242.556 29.2499C243.078 29.0658 243.573 28.8292 243.937 28.391C244.699 27.4752 244.55 26.0992 244.165 25.4463C243.932 25.0563 243.595 24.8022 243.201 24.605C242.675 24.3464 242.114 24.2018 241.54 24.1317C240.707 24.0309 239.875 23.9477 239.038 23.917C237.333 23.8513 235.629 23.8294 233.924 23.7856C233.81 23.7856 233.692 23.7856 233.578 23.7768C233.302 23.7593 233.21 23.6804 233.205 23.4131C233.197 22.9486 233.201 22.4885 233.205 22.024C233.205 21.3886 233.205 20.7532 233.214 20.1179C233.219 19.7936 233.306 19.7147 233.63 19.7016C234.757 19.6621 235.883 19.6183 237.009 19.6052C238.367 19.5876 239.726 19.5219 241.075 19.3948C241.654 19.3423 242.223 19.2546 242.776 19.0706C243.845 18.7113 244.454 17.94 244.485 16.9234C244.52 15.6614 244.02 14.8464 242.898 14.4082C242.088 14.0927 241.229 13.9262 240.361 13.8736C237.964 13.7333 235.567 13.7509 233.17 13.8867C232.333 13.9349 231.514 14.1102 230.708 14.3643C229.099 14.8683 228.201 15.9681 228.017 17.6245C227.921 18.5141 227.899 18.4922 227.009 18.4922C225.392 18.4922 223.771 18.4922 222.154 18.4922C221.952 18.4922 221.751 18.4922 221.549 18.479C221.265 18.4615 221.177 18.3782 221.172 18.1197C221.164 17.309 221.247 16.5027 221.422 15.7096C221.541 15.175 221.72 14.6492 221.913 14.1409C222.671 12.1602 224.051 10.758 225.931 9.79397C227.61 8.9351 229.411 8.56702 231.251 8.33039C233.232 8.07624 235.225 7.9404 237.219 8.00613C239.761 8.08501 242.302 8.21646 244.787 8.82117C246.176 9.15858 247.491 9.64498 248.669 10.4776C249.979 11.4021 250.847 12.616 251.141 14.2066C251.316 15.1443 251.434 16.0865 251.25 17.0461C251.031 18.1854 250.593 19.1933 249.734 19.9995C249.397 20.3151 249.05 20.6218 248.665 20.8803C248.257 21.152 247.859 21.4324 247.359 21.7786H247.368Z" fill="#005386"/>
  <path d="M220.226 41.5588C220.226 42.2205 220.23 42.8865 220.226 43.5482C220.222 44.0653 220.182 44.096 219.7 44.1135C218.478 44.1573 218.473 44.1617 217.619 43.2634C216.843 42.4483 216.072 41.6289 215.371 40.7482C215.353 40.7262 215.34 40.6956 215.314 40.6824C215.244 40.643 215.174 40.5773 215.099 40.5773C214.976 40.5773 214.994 40.6956 214.994 40.7744C214.985 41.4975 214.985 42.2161 214.981 42.9391C214.981 43.1714 214.981 43.3992 214.976 43.6315C214.959 44.0565 214.902 44.1091 214.455 44.1135C214.341 44.1135 214.223 44.1135 214.109 44.1091C213.784 44.0916 213.714 44.0302 213.71 43.6797C213.701 42.2643 213.701 40.8533 213.71 39.4379C213.71 39.1224 213.793 39.0611 214.139 39.048C215.393 38.9866 215.384 38.9954 216.265 39.9638C217.04 40.8183 217.833 41.6552 218.618 42.5009C218.679 42.5667 218.749 42.6017 218.841 42.5754C218.96 42.5404 218.933 42.4396 218.933 42.3607C218.933 41.5544 218.933 40.7438 218.933 39.9375C218.933 39.7359 218.929 39.5343 218.942 39.3328C218.955 39.1706 219.052 39.0742 219.222 39.0655C219.393 39.0567 219.569 39.0479 219.74 39.0523C220.134 39.0523 220.204 39.1137 220.213 39.4861C220.222 39.9769 220.213 40.4677 220.213 40.9585C220.213 41.16 220.213 41.3616 220.213 41.5632H220.222L220.226 41.5588Z" fill="#005386"/>
  <path d="M230.69 44.2011C230.147 44.2099 229.573 44.1836 229.003 44.0609C228.657 43.9864 228.341 43.8549 228.057 43.6534C227.811 43.4825 227.636 43.259 227.539 42.9742C227.421 42.6324 227.583 42.4177 227.951 42.4177C228.337 42.4177 228.688 42.4615 228.937 42.8296C229.091 43.0531 229.345 43.1407 229.617 43.1626C230.309 43.2152 231.001 43.2546 231.694 43.1977C231.987 43.1757 232.259 43.0925 232.482 42.8865C232.671 42.7112 232.64 42.4483 232.417 42.3037C232.211 42.1723 231.987 42.146 231.755 42.1241C231.15 42.0759 230.545 42.0233 229.941 41.9838C229.389 41.9488 228.85 41.8655 228.341 41.6377C227.912 41.4449 227.671 41.1162 227.614 40.6386C227.544 40.047 227.78 39.6264 228.284 39.3503C228.433 39.267 228.6 39.2057 228.766 39.1706C229.941 38.9209 231.124 38.9296 232.29 39.2057C232.951 39.3634 233.407 39.7929 233.617 40.4545C233.661 40.586 233.617 40.6956 233.486 40.7175C233.289 40.7525 233.083 40.7569 232.881 40.77C232.662 40.7876 232.482 40.7262 232.36 40.5334C232.119 40.161 231.759 40.0514 231.33 39.9944C230.69 39.9068 230.059 39.9725 229.432 40.0558C229.297 40.0733 229.156 40.1391 229.042 40.2135C228.801 40.3801 228.837 40.7394 229.099 40.8445C229.424 40.976 229.761 41.0373 230.112 41.068C230.716 41.1206 231.321 41.1819 231.921 41.2564C232.263 41.3003 232.609 41.3616 232.942 41.4449C233.429 41.5676 233.779 41.8568 233.836 42.3826C233.898 42.9347 233.753 43.4167 233.24 43.7235C232.991 43.8725 232.723 43.9733 232.439 44.0478C231.869 44.1924 231.295 44.2011 230.681 44.1924L230.69 44.2011Z" fill="#005386"/>
  <path d="M223.789 44.1967C223.293 44.223 222.811 44.1354 222.343 43.9951C221.567 43.7629 221.067 43.2546 220.839 42.4658C220.695 41.9531 220.669 41.4492 220.791 40.9322C221.002 40.0382 221.541 39.4467 222.421 39.2057C223.412 38.934 224.42 38.9252 225.405 39.2232C226.54 39.5606 227.101 40.4238 227.057 41.7516C227.014 43.1538 226.448 43.7629 225.072 44.0652C224.647 44.1573 224.222 44.2186 223.784 44.1967H223.789ZM223.859 43.1757C224.205 43.1801 224.542 43.167 224.871 43.0267C225.476 42.7726 225.739 42.3125 225.765 41.6815C225.791 41.0548 225.572 40.5684 224.998 40.2573C224.542 40.0119 224.06 40.0076 223.569 40.0426C222.461 40.1215 221.874 40.8664 222.036 41.9751C222.11 42.4746 222.378 42.8164 222.846 43.0004C223.171 43.1275 223.512 43.1801 223.859 43.1757Z" fill="#005386"/>
  <path d="M213.145 43.9908C212.996 44.1135 212.816 44.074 212.645 44.0872C211.922 44.1529 211.909 44.1573 211.633 43.5131C211.501 43.2064 211.317 43.0487 210.984 43.0487C210.204 43.0487 209.424 43.0399 208.644 43.0355C208.417 43.0355 208.263 43.1451 208.171 43.351C208.158 43.3773 208.145 43.4036 208.132 43.4299C207.987 43.6709 207.965 44.0477 207.65 44.1091C207.317 44.1748 206.962 44.1222 206.62 44.1091C206.524 44.1091 206.475 44.0083 206.502 43.9207C206.532 43.8111 206.589 43.7103 206.642 43.6052C207.343 42.2117 208.053 40.8226 208.75 39.4248C208.868 39.1881 209.008 39.0698 209.28 39.0742C209.74 39.0874 210.2 39.083 210.66 39.083C211.028 39.3985 211.12 39.8717 211.335 40.2705C211.896 41.3134 212.426 42.3738 212.969 43.4255C213.061 43.6052 213.189 43.7717 213.153 43.9864L213.145 43.9908ZM209.863 40.0251C209.538 40.6955 209.275 41.2301 209.021 41.7735C208.912 42.0058 208.973 42.1153 209.201 42.1197C209.714 42.1284 210.226 42.1197 210.792 42.1197C210.612 41.3835 210.191 40.8051 209.863 40.0251Z" fill="#005386"/>
</svg>