<svg xmlns="http://www.w3.org/2000/svg" width="123" height="18" viewBox="0 0 123 18" fill="none">
  <g clip-path="url(#clip0_1212_8071)">
    <path d="M69.5795 0H68.2336V10.8461C68.2336 11.8403 67.4282 12.658 66.4367 12.658H64.6433C63.6554 12.658 62.8464 11.8403 62.8464 10.8461V7.22954C62.8464 6.23534 63.6554 5.42485 64.6433 5.42485H66.8913C67.1383 5.42485 67.3387 5.21953 67.3387 4.97098V3.61297H64.6433C62.6674 3.61297 61.0566 5.24475 61.0566 7.22954V10.8461C61.0566 12.8345 62.6674 14.4627 64.6433 14.4627H66.4367C68.4126 14.4627 70.0341 12.8345 70.0341 10.8461V0.453872C70.0341 0.201721 69.8301 0 69.5795 0Z" fill="white"/>
    <path d="M119.409 3.61304H115.819V4.97105C115.819 5.2196 116.023 5.42492 116.266 5.42492H119.413C120.186 5.42492 120.837 5.91122 121.095 6.59923L117.093 7.26923C115.361 7.52859 114.025 9.03789 114.025 10.8534C114.025 12.8454 115.629 14.4627 117.616 14.4663H119.413C121.396 14.4663 123.003 12.8454 123.003 10.8534V7.22961C123.003 5.23401 121.396 3.61304 119.413 3.61304H119.409ZM121.206 10.8498C121.206 11.844 120.401 12.6545 119.409 12.6545H117.612C116.621 12.6545 115.819 11.8404 115.819 10.8498C115.819 10.0357 116.352 9.34768 117.089 9.11354L121.206 8.42913V10.8462V10.8498Z" fill="white"/>
    <path d="M84.8418 12.658H84.3871C83.3992 12.658 82.5974 11.8439 82.5974 10.8533V0.453872C82.5974 0.201721 82.3933 0 82.1464 0H80.7969V10.8497C80.7969 12.8345 82.3969 14.4555 84.3764 14.4627H84.8418C85.0887 14.4627 85.2856 14.2574 85.2856 14.0088V13.1083C85.2856 12.8597 85.0887 12.658 84.8418 12.658Z" fill="white"/>
    <path d="M76.3166 3.61304H74.5125C72.5294 3.61664 70.9258 5.23761 70.9258 7.22961V10.8534C70.9258 12.849 72.533 14.4663 74.5196 14.4663H78.1099V13.1119C78.1099 12.8634 77.913 12.6617 77.6589 12.6617H74.5125C73.7429 12.6617 73.0842 12.1682 72.8301 11.4802L76.8392 10.8138C78.5717 10.5544 79.9033 9.0523 79.9033 7.23321C79.9033 5.24121 78.2996 3.62384 76.3166 3.61664V3.61304ZM76.8392 8.96225L72.7227 9.64666V7.22961C72.7227 6.23541 73.5209 5.42492 74.5125 5.42492H76.3166C77.3081 5.42492 78.1099 6.23541 78.1099 7.22961C78.1099 8.0437 77.5801 8.73171 76.8392 8.96225Z" fill="white"/>
    <path d="M15.2625 3.53369H13.4692C11.4933 3.53369 9.87891 5.16547 9.87891 7.15026V10.774C9.87891 12.7588 11.4969 14.3906 13.4692 14.3906H16.161V13.0326C16.161 12.784 15.957 12.5787 15.7136 12.5787H13.4692C12.4848 12.5787 11.6723 11.7646 11.6723 10.774V7.15026C11.6723 6.15967 12.4812 5.34558 13.4692 5.34558H15.2625C16.2505 5.34558 17.0595 6.15967 17.0595 7.15026V14.387C17.0595 15.3812 16.2541 16.1881 15.2661 16.1881H12.1197C11.8763 16.1881 11.6723 16.3934 11.6723 16.642V17.5461C11.6723 17.7982 11.8763 18 12.1197 18H15.2625C17.2456 18 18.8528 16.3826 18.8528 14.387V7.15026C18.8528 5.16547 17.2384 3.53369 15.2625 3.53369Z" fill="white"/>
    <path d="M56.5672 3.53363H52.9769V4.89165C52.9769 5.1402 53.1774 5.34192 53.428 5.34192H56.5744C57.344 5.34192 57.999 5.83181 58.2532 6.51982L54.2477 7.18982C52.5152 7.44558 51.1836 8.95128 51.1836 10.7704C51.1836 12.7624 52.7872 14.3761 54.7703 14.3869H56.5744C58.5574 14.3797 60.1611 12.7624 60.1611 10.7704V7.1466C60.1611 5.151 58.5574 3.53003 56.5672 3.53003V3.53363ZM58.3677 10.7704C58.3677 11.761 57.5659 12.5751 56.5744 12.5751H54.7703C53.7788 12.5751 52.9769 11.761 52.9769 10.7704C52.9769 9.95628 53.5139 9.26827 54.2477 9.04134L58.3677 8.35693V10.774V10.7704Z" fill="white"/>
    <path d="M49.8342 0.803223H48.9357C48.6887 0.803223 48.4883 1.00494 48.4883 1.25709V2.61151H49.8342C50.0848 2.61151 50.2816 2.40618 50.2816 2.15763V1.25709C50.2816 1.00494 50.0848 0.803223 49.8342 0.803223Z" fill="white"/>
    <path d="M49.8342 3.51221H48.4883V13.9044C48.4883 14.153 48.6923 14.3547 48.9357 14.3547H49.8342C50.0848 14.3547 50.2816 14.153 50.2816 13.9044V3.96608C50.2816 3.71753 50.0848 3.51221 49.8342 3.51221Z" fill="white"/>
    <path d="M25.1392 3.53369H23.3386C21.3592 3.53729 19.752 5.15827 19.752 7.15026V10.774C19.752 12.7696 21.3592 14.3906 23.3422 14.3906H26.9361V13.0326C26.9361 12.784 26.7356 12.5787 26.4886 12.5787H23.3386C22.569 12.5787 21.9176 12.0924 21.6634 11.4044L25.6689 10.738C27.405 10.4787 28.7294 8.96935 28.7294 7.15386C28.7294 5.16187 27.1222 3.5445 25.1392 3.53729V3.53369ZM25.6689 8.8829L21.5525 9.56731V7.15026C21.5525 6.15967 22.3543 5.34558 23.3422 5.34558H25.1427C26.1343 5.34558 26.9397 6.15967 26.9397 7.15026C26.9397 7.96795 26.4099 8.65596 25.6725 8.8829H25.6689Z" fill="white"/>
    <path d="M5.3872 3.53363H1.79693V4.89165C1.79693 5.1402 1.99738 5.34192 2.24437 5.34192H5.39078C6.16038 5.34192 6.81544 5.83181 7.066 6.51982L3.0605 7.18982C1.32801 7.44558 0 8.95128 0 10.7704C0 12.7624 1.60721 14.3761 3.59027 14.3869H5.39436C7.37384 14.3797 8.98463 12.7624 8.98463 10.7704V7.1466C8.98463 5.151 7.37384 3.53003 5.39078 3.53003L5.3872 3.53363ZM7.18413 10.7704C7.18413 11.761 6.38231 12.5751 5.39436 12.5751H3.59027C2.59874 12.5751 1.79693 11.761 1.79693 10.7704C1.79693 9.95628 2.3267 9.26827 3.06408 9.04134L7.18413 8.35693V10.774V10.7704Z" fill="white"/>
    <path d="M26.936 2.15763V1.25709C26.936 1.00494 26.7356 0.803223 26.4886 0.803223H21.9998C21.7529 0.803223 21.5488 1.00494 21.5488 1.25709V2.61151H26.4886C26.7356 2.61151 26.936 2.40618 26.936 2.15763Z" fill="white"/>
    <path d="M35.0106 3.62012H33.2208C31.2342 3.62012 29.627 5.23749 29.627 7.23308V14.0087C29.627 14.2573 29.831 14.459 30.078 14.459H30.9764C31.2198 14.459 31.4239 14.2573 31.4239 14.0087V7.23308C31.4239 6.23889 32.2293 5.4248 33.2208 5.4248H35.0106C36.0057 5.4248 36.8075 6.23889 36.8075 7.23308V14.0087C36.8075 14.2573 37.0115 14.459 37.2549 14.459H38.6044V7.23308C38.6044 5.23749 36.9972 3.62012 35.0106 3.62012Z" fill="white"/>
    <path d="M94.714 3.62012H93.8155C93.5721 3.62012 93.368 3.82184 93.368 4.07039V10.8497C93.368 11.8439 92.5698 12.6543 91.5711 12.6543H89.7814C88.7862 12.6543 87.9844 11.8402 87.9844 10.8497V4.07039C87.9844 3.82184 87.7804 3.62012 87.537 3.62012H86.1875V10.8497C86.1875 12.8453 87.7947 14.4626 89.7814 14.4626H91.5711C93.5578 14.4626 95.165 12.8453 95.165 10.8497V4.07039C95.165 3.82184 94.9609 3.62012 94.714 3.62012Z" fill="white"/>
    <path d="M39.5117 7.15032V10.7741C39.5117 12.7697 41.1225 14.3907 43.1056 14.3907H47.1433C47.3903 14.3907 47.5907 14.1853 47.5907 13.9368V13.0327C47.5907 12.7841 47.3939 12.5788 47.1433 12.5788H43.102C42.1105 12.5788 41.3086 11.7647 41.3086 10.7741V7.15032C41.3086 6.15973 42.1105 5.34564 43.102 5.34564H47.1433C47.3903 5.34564 47.5907 5.14392 47.5907 4.89537V3.53735H43.1092C41.1225 3.53735 39.5153 5.15472 39.5153 7.15392L39.5117 7.15032Z" fill="white"/>
    <path d="M96.0684 7.15032V10.7741C96.0684 12.7697 97.672 14.3907 99.6622 14.3907H103.696C103.947 14.3907 104.144 14.1853 104.144 13.9368V13.0327C104.144 12.7841 103.947 12.5788 103.696 12.5788H99.6551C98.6599 12.5788 97.8617 11.7647 97.8617 10.7741V7.15032C97.8617 6.15973 98.6599 5.34564 99.6551 5.34564H103.696C103.947 5.34564 104.144 5.14392 104.144 4.89537V3.53735H99.6622C97.672 3.53735 96.0684 5.15472 96.0684 7.15392V7.15032Z" fill="white"/>
    <path d="M105.045 7.15032V10.7741C105.045 12.7697 106.649 14.3907 108.639 14.3907H112.673C112.92 14.3907 113.12 14.1853 113.12 13.9368V13.0327C113.12 12.7841 112.923 12.5788 112.673 12.5788H108.632C107.64 12.5788 106.838 11.7647 106.838 10.7741V7.15032C106.838 6.15973 107.637 5.34564 108.632 5.34564H112.673C112.92 5.34564 113.12 5.14392 113.12 4.89537V3.53735H108.639C106.649 3.53735 105.045 5.15472 105.045 7.15392V7.15032Z" fill="white"/>
  </g>
  <defs>
    <clipPath id="clip0_1212_8071">
      <rect width="123" height="18" fill="white"/>
    </clipPath>
  </defs>
</svg>