<svg xmlns="http://www.w3.org/2000/svg" width="26" height="26" viewBox="0 0 26 26" fill="none">
  <g clip-path="url(#clip0_1212_6905)">
    <path d="M16.6959 14.761C16.8084 14.6862 16.9378 14.6405 17.0724 14.6283C17.207 14.6161 17.3425 14.6376 17.4667 14.691L22.2564 16.837C22.4178 16.906 22.5526 17.0254 22.6404 17.1773C22.7283 17.3293 22.7646 17.5056 22.7439 17.6799C22.5861 18.8591 22.0054 19.9409 21.1098 20.724C20.2142 21.5071 19.0647 21.9384 17.875 21.9374C14.2117 21.9374 10.6984 20.4822 8.10809 17.8919C5.51774 15.3015 4.0625 11.7883 4.0625 8.12495C4.06159 6.93525 4.4928 5.78571 5.27593 4.89011C6.05906 3.99452 7.14081 3.41383 8.32 3.25604C8.49432 3.23533 8.67065 3.27163 8.82261 3.35951C8.97457 3.44739 9.09398 3.58213 9.16297 3.74354L11.309 8.53729C11.3617 8.66041 11.3832 8.79466 11.3715 8.92809C11.3598 9.06152 11.3153 9.18998 11.242 9.30206L9.07156 11.8828C8.99458 11.9989 8.94905 12.1331 8.93944 12.2721C8.92982 12.4112 8.95645 12.5503 9.01672 12.676C9.85664 14.3954 11.634 16.1514 13.3585 16.9832C13.4848 17.0432 13.6246 17.0693 13.7641 17.0588C13.9035 17.0482 14.0378 17.0016 14.1538 16.9233L16.6959 14.761Z" stroke="#004B82" stroke-linecap="round" stroke-linejoin="round"/>
  </g>
  <defs>
    <clipPath id="clip0_1212_6905">
      <rect width="26" height="26" fill="white"/>
    </clipPath>
  </defs>
</svg>