<svg xmlns="http://www.w3.org/2000/svg" width="42" height="43" viewBox="0 0 42 43" fill="none">
  <g clip-path="url(#clip0_559_4081)">
    <path d="M26.9702 24.3448C27.152 24.2239 27.3611 24.1502 27.5785 24.1304C27.7959 24.1107 28.0149 24.1454 28.2155 24.2316L35.9527 27.6983C36.2134 27.8097 36.431 28.0026 36.573 28.2481C36.715 28.4936 36.7736 28.7784 36.7402 29.06C36.4853 30.9648 35.5472 32.7123 34.1005 33.9773C32.6538 35.2424 30.7968 35.939 28.875 35.9375C22.9574 35.9375 17.2821 33.5867 13.0977 29.4023C8.91328 25.2179 6.5625 19.5426 6.5625 13.625C6.56103 11.7032 7.2576 9.84622 8.52266 8.39949C9.78772 6.95276 11.5352 6.01473 13.44 5.75984C13.7216 5.72639 14.0064 5.78503 14.2519 5.92699C14.4974 6.06895 14.6903 6.28659 14.8017 6.54734L18.2684 14.2911C18.3535 14.49 18.3882 14.7068 18.3693 14.9224C18.3504 15.1379 18.2786 15.3454 18.1601 15.5265L14.6541 19.6953C14.5297 19.883 14.4562 20.0997 14.4406 20.3243C14.4251 20.5489 14.4681 20.7736 14.5655 20.9766C15.9223 23.7542 18.7934 26.5909 21.5791 27.9345C21.7832 28.0315 22.009 28.0735 22.2343 28.0565C22.4596 28.0396 22.6765 27.9641 22.8638 27.8377L26.9702 24.3448Z" stroke="white" stroke-linecap="round" stroke-linejoin="round"/>
  </g>
  <defs>
    <clipPath id="clip0_559_4081">
      <rect width="42" height="42" fill="white" transform="translate(0 0.5)"/>
    </clipPath>
  </defs>
</svg>