<svg xmlns="http://www.w3.org/2000/svg" width="26" height="26" viewBox="0 0 26 26" fill="none">
  <g clip-path="url(#clip0_1212_6910)">
    <path d="M7.3125 10.5625C7.3125 9.70055 7.65491 8.8739 8.2644 8.2644C8.8739 7.65491 9.70055 7.3125 10.5625 7.3125L12.1875 10.5625L10.9363 12.4384C11.4326 13.6243 12.3757 14.5674 13.5616 15.0638L15.4375 13.8125L18.6875 15.4375C18.6875 16.2995 18.3451 17.1261 17.7356 17.7356C17.1261 18.3451 16.2995 18.6875 15.4375 18.6875C13.2826 18.6875 11.216 17.8315 9.69226 16.3077C8.16852 14.784 7.3125 12.7174 7.3125 10.5625Z" stroke="#004B82" stroke-linecap="round" stroke-linejoin="round"/>
    <path d="M8.11794 21.4408C10.166 22.6261 12.5752 23.0262 14.8964 22.5664C17.2176 22.1066 19.2924 20.8183 20.7339 18.9417C22.1754 17.0651 22.8853 14.7284 22.7311 12.3671C22.577 10.0058 21.5694 7.78116 19.8961 6.10792C18.2229 4.43468 15.9983 3.42706 13.637 3.27292C11.2757 3.11878 8.93891 3.82864 7.06235 5.27015C5.18578 6.71166 3.8975 8.78644 3.43769 11.1076C2.97788 13.4289 3.37793 15.8381 4.56325 17.8861L3.29271 21.6795C3.24497 21.8226 3.23804 21.9763 3.2727 22.1231C3.30736 22.27 3.38224 22.4043 3.48895 22.511C3.59566 22.6178 3.72998 22.6926 3.87686 22.7273C4.02373 22.762 4.17736 22.755 4.32052 22.7073L8.11794 21.4408Z" stroke="#004B82" stroke-linecap="round" stroke-linejoin="round"/>
  </g>
  <defs>
    <clipPath id="clip0_1212_6910">
      <rect width="26" height="26" fill="white"/>
    </clipPath>
  </defs>
</svg>