<svg xmlns="http://www.w3.org/2000/svg" width="42" height="43" viewBox="0 0 42 43" fill="none">
  <g clip-path="url(#clip0_559_4086)">
    <path d="M11.8125 17.5625C11.8125 16.1701 12.3656 14.8348 13.3502 13.8502C14.3348 12.8656 15.6701 12.3125 17.0625 12.3125L19.6875 17.5625L17.6663 20.5927C18.468 22.5086 19.9914 24.032 21.9073 24.8338L24.9375 22.8125L30.1875 25.4375C30.1875 26.8299 29.6344 28.1652 28.6498 29.1498C27.6652 30.1344 26.3299 30.6875 24.9375 30.6875C21.4565 30.6875 18.1181 29.3047 15.6567 26.8433C13.1953 24.3819 11.8125 21.0435 11.8125 17.5625Z" stroke="white" stroke-linecap="round" stroke-linejoin="round"/>
    <path d="M13.114 35.1353C16.4223 37.05 20.3142 37.6962 24.0638 36.9535C27.8135 36.2107 31.165 34.1296 33.4936 31.0983C35.8222 28.0669 36.9689 24.2921 36.7199 20.4777C36.4709 16.6633 34.8432 13.0697 32.1403 10.3667C29.4374 7.66383 25.8437 6.03613 22.0293 5.78713C18.2149 5.53813 14.4402 6.68483 11.4088 9.01343C8.37741 11.342 6.29634 14.6936 5.55357 18.4432C4.81081 22.1929 5.45704 26.0847 7.37179 29.3931L5.31936 35.5208C5.24224 35.7521 5.23105 36.0002 5.28704 36.2375C5.34303 36.4748 5.464 36.6917 5.63638 36.8641C5.80875 37.0365 6.02573 37.1575 6.26299 37.2134C6.50025 37.2694 6.74842 37.2582 6.97968 37.1811L13.114 35.1353Z" stroke="white" stroke-linecap="round" stroke-linejoin="round"/>
  </g>
  <defs>
    <clipPath id="clip0_559_4086">
      <rect width="42" height="42" fill="white" transform="translate(0 0.5)"/>
    </clipPath>
  </defs>
</svg>