<svg xmlns="http://www.w3.org/2000/svg" width="46" height="46" viewBox="0 0 46 46" fill="none">
  <rect width="46" height="46" rx="23" fill="#004B82"/>
  <path d="M20.2 26.4286L26.1685 23L20.2 19.5714V26.4286ZM33.494 17.48C33.6435 18.0171 33.747 18.7371 33.816 19.6514C33.8965 20.5657 33.931 21.3543 33.931 22.04L34 23C34 25.5029 33.816 27.3429 33.494 28.52C33.2065 29.5486 32.5395 30.2114 31.5045 30.4971C30.964 30.6457 29.975 30.7486 28.457 30.8171C26.962 30.8971 25.5935 30.9314 24.3285 30.9314L22.5 31C17.6815 31 14.68 30.8171 13.4955 30.4971C12.4605 30.2114 11.7935 29.5486 11.506 28.52C11.3565 27.9829 11.253 27.2629 11.184 26.3486C11.1035 25.4343 11.069 24.6457 11.069 23.96L11 23C11 20.4971 11.184 18.6571 11.506 17.48C11.7935 16.4514 12.4605 15.7886 13.4955 15.5029C14.036 15.3543 15.025 15.2514 16.543 15.1829C18.038 15.1029 19.4065 15.0686 20.6715 15.0686L22.5 15C27.3185 15 30.32 15.1829 31.5045 15.5029C32.5395 15.7886 33.2065 16.4514 33.494 17.48Z" fill="white"/>
</svg>