<svg width="57" height="57" viewBox="0 0 57 57" fill="none" xmlns="http://www.w3.org/2000/svg">
<path d="M24.412 34.8718L34.2674 29.0963L24.412 23.3208V34.8718ZM46.3635 19.7977C46.6104 20.7026 46.7813 21.9154 46.8952 23.4556C47.0282 24.9957 47.0851 26.3241 47.0851 27.4792L47.1991 29.0963C47.1991 33.3124 46.8952 36.412 46.3635 38.3949C45.8888 40.1275 44.7874 41.2441 43.0784 41.7254C42.1859 41.9757 40.5528 42.149 38.0463 42.2645C35.5777 42.3992 33.318 42.457 31.2292 42.457L28.2099 42.5725C20.2534 42.5725 15.2972 42.2645 13.3414 41.7254C11.6323 41.2441 10.531 40.1275 10.0562 38.3949C9.80937 37.49 9.63847 36.2772 9.52453 34.7371C9.39161 33.1969 9.33464 31.8686 9.33464 30.7134L9.2207 29.0963C9.2207 24.8802 9.52453 21.7807 10.0562 19.7977C10.531 18.0651 11.6323 16.9485 13.3414 16.4672C14.2338 16.2169 15.8669 16.0437 18.3735 15.9281C20.8421 15.7934 23.1018 15.7356 25.1906 15.7356L28.2099 15.6201C36.1663 15.6201 41.1225 15.9281 43.0784 16.4672C44.7874 16.9485 45.8888 18.0651 46.3635 19.7977Z" fill="white"/>
</svg>
