<svg xmlns="http://www.w3.org/2000/svg" width="46" height="47" viewBox="0 0 46 47" fill="none">
  <rect y="0.5" width="46" height="46" rx="23" fill="white"/>
  <path d="M20.2 26.9286L26.1685 23.5L20.2 20.0714V26.9286ZM33.494 17.98C33.6435 18.5171 33.747 19.2371 33.816 20.1514C33.8965 21.0657 33.931 21.8543 33.931 22.54L34 23.5C34 26.0029 33.816 27.8429 33.494 29.02C33.2065 30.0486 32.5395 30.7114 31.5045 30.9971C30.964 31.1457 29.975 31.2486 28.457 31.3171C26.962 31.3971 25.5935 31.4314 24.3285 31.4314L22.5 31.5C17.6815 31.5 14.68 31.3171 13.4955 30.9971C12.4605 30.7114 11.7935 30.0486 11.506 29.02C11.3565 28.4829 11.253 27.7629 11.184 26.8486C11.1035 25.9343 11.069 25.1457 11.069 24.46L11 23.5C11 20.9971 11.184 19.1571 11.506 17.98C11.7935 16.9514 12.4605 16.2886 13.4955 16.0029C14.036 15.8543 15.025 15.7514 16.543 15.6829C18.038 15.6029 19.4065 15.5686 20.6715 15.5686L22.5 15.5C27.3185 15.5 30.32 15.6829 31.5045 16.0029C32.5395 16.2886 33.2065 16.9514 33.494 17.98Z" fill="#004B82"/>
</svg>